<?xml version="1.0" encoding="UTF-8"?><svg id="Layer_2" xmlns="http://www.w3.org/2000/svg" viewBox="0 0 186.28 275.99"><defs><style>.cls-1{fill:#de3702;}</style></defs><g id="Layer_2-2"><path class="cls-1" d="M109.35,275.99h-32.4c0-.94,0-1.8,0-2.67,0-8.09-.03-16.19,.04-24.28,.01-1.58-.4-2.18-2.06-2.41-13.55-1.85-26.53-5.52-38.32-12.68-15.38-9.34-25.82-22.79-32.41-39.36-1.51-3.8-2.73-7.72-4.2-11.93,19.96-3.71,39.5-7.34,59.03-10.96,1.03,2.47,1.85,4.8,2.93,7.01,3.91,7.99,10.09,13.55,18.55,16.32,10.22,3.35,20.64,3.63,31.02,.88,7.76-2.06,11.08-7.37,9.59-14.54-.86-4.13-3.38-7.11-7.12-8.73-4.17-1.81-8.49-3.37-12.89-4.54-13.45-3.58-27.05-6.66-40.44-10.46-9.43-2.68-18.56-6.5-26.58-12.25-12.66-9.07-20.27-21.66-22.53-36.96-3.73-25.19,4.1-46.49,23.51-63.12,9.72-8.33,21.53-12.52,33.89-15.25,2.55-.56,5.13-1.01,7.9-1.55V0h32.47V2.44c0,7.65,.06,15.29-.04,22.93-.03,1.94,.44,2.64,2.51,2.91,16.3,2.1,31.58,6.95,44.71,17.27,11.15,8.76,18.7,20.11,23.65,33.28,.08,.2,.08,.43,.17,.95-17.46,5.47-34.92,10.94-52.54,16.46-.73-1.54-1.34-2.97-2.06-4.34-5.6-10.77-14.83-15.91-26.62-16.85-5.85-.47-11.7-.39-17.31,1.74-8.48,3.22-11.01,13.75-4.56,19.69,1.8,1.66,4.27,2.86,6.65,3.57,6.31,1.88,12.7,3.49,19.11,5,14.8,3.48,29.61,6.92,43.96,12.07,7.8,2.8,14.76,6.98,20.67,12.8,14.08,13.87,19.9,30.85,18.41,50.36-2.06,27.09-16.99,45.17-40.62,56.88-10.72,5.31-22.24,8-34.06,9.46-1.66,.2-2.08,.78-2.07,2.38,.07,8.09,.03,16.19,.03,24.28,0,.81,0,1.62,0,2.7Z"/></g></svg>