<?xml version="1.0" encoding="UTF-8"?><svg id="Layer_2" xmlns="http://www.w3.org/2000/svg" viewBox="0 0 480 680.61"><defs><style>.cls-1{fill:#dd6747;}.cls-2{stroke-linecap:round;}.cls-2,.cls-3{fill:none;stroke:#000;stroke-miterlimit:10;stroke-width:2px;}.cls-4{fill:#ab3624;}.cls-5{fill:#fff;opacity:.37;}.cls-6{fill:#de3702;}.cls-7{fill:#fc7a51;}</style></defs><g id="Layer_1-2"><g><g><path class="cls-3" d="M253.06,639.07v41.54"/><g><path class="cls-3" d="M245.69,593.66c-3.18-1.05-19.39-6.88-31.16-4.49-19.29,3.93-13.53,14.86,2.51,17.03,8.38,1.13,22.67-7.98,28.65-12.54"/><path class="cls-3" d="M262.36,594.2c2.86,1.37,17.28,8.85,29.51,7.74,20.07-1.82,17.3-13.21,2.07-17.05-7.96-2.01-24.47,5.45-31.58,9.31"/></g><path class="cls-6" d="M377.95,487.82c-10.19,9.69-45.97,44.01-70.63,62.78-1.82,1.39-31.22,21.17-35.32,28.03-7.01,11.74-3.26,28.5,.89,39.22,1.49,3.86,3.11,8.48,4.22,10.26,6.59-3.01,6.38-10.26,2.66-10.67,4.74-2.45,10.96-6.16,17.72,.43,4.77,4.65,4.62,19.07-6.73,23.55-19.76,7.79-32.32,1.63-42.36-2.73h-.01c-6.19-2.7-11.35-3.15-16.7-.77-10.09,4.48-10.09,8.13-10.09,8.13,8.9-5.45,15.78-6.12,20.15-2.91-19.57,12.45-35.87,16.79-41.81,10.88-4.45-4.42-4.74-16.2,.56-23.26,2.79-3.71,6.68-5.51,8.69-6.45,7.45-3.45,15-3.29,19.62-5.04,5.59-2.12,14.25-25.13,5.89-37.28-4.31-6.25-5.86-7.6-16.18-14.91-13.99-8.4-76.49-50.21-79.11-52.21C41.85,440.72,4.7,386.14,.25,269.44-5.67,113.98,94.74-11.37,268.87,.82c137.66,9.65,209.56,118.91,211.12,263.05,1.03,95.2-56.56,180.74-102.03,223.96Z"/><path class="cls-4" d="M238.88,623.75c-2.99,1.07-25.52,7.64-30.45,12.64-3.09,3.13-3.34,7.8-2.59,11.37,.53,2.51,2.07,4.68,4.21,6.09l3.31,2.18c-2.21,.61-8.57,3.57-14.05-2.41-3.57-3.89-4.07-16.06,1.23-23.11,2.79-3.71,6.68-5.51,8.69-6.45,1.03-.48,2.06-.89,3.09-1.24,6.39-2.2,12.55-2.3,16.53-3.8,5.59-2.12,14.25-25.13,5.89-37.28-4.31-6.25-5.86-7.6-16.18-14.91-1.13-.68-2.57-1.57-4.28-2.65-19.41-12.23-72.43-47.72-74.84-49.56C41.88,440.46,4.72,385.88,.27,269.18-5.65,113.71,85.83,6.15,233.04,0-28.88,116.2,87.36,431.95,214.78,548.99c11.22,10.3,23.36,19.99,28.26,28.39,1.49,2.55,8.69,40.07-4.16,46.37Z"/><path class="cls-4" d="M277.12,628.12c-1.12-1.78-2.73-6.4-4.22-10.26,1.58,2.15,3.95,1.11,6.89-.41,3.72,.41,3.92,7.66-2.66,10.67Z"/><path class="cls-4" d="M248.41,638.7c-2.25,1.58-4.46,3.06-6.63,4.45h-.01c-4.36-3.21-11.25-2.54-20.15,2.91,0,0,0-3.65,10.09-8.13,5.35-2.37,10.51-1.92,16.7,.77Z"/><path class="cls-2" d="M237.41,595.18c14.38,1.67,8.19-5.81,31.3,0"/><path class="cls-2" d="M235.71,605.17c4.98,3.18,27.39-7.92,34.17,0"/></g><g><g><path class="cls-7" d="M32.76,181.1c6.93-.51,10.38-.75,17.29-1.22-5.32,29.46-6.67,57.74-4.02,87.56-7.1-1.98-10.65-2.99-17.73-5.06-2.19-27.69-.7-53.96,4.46-81.28Z"/><path class="cls-7" d="M63.19,179.01c6.67-.42,10-.63,16.65-1.01,4.5,17.33,9.85,34.17,15.92,51.01,.71-17.54,2.28-34.75,4.72-52.13,5.24-.27,7.86-.39,13.1-.64-4.62,35.94-5.35,71.29-2.1,107.39-6.99-1.48-10.49-2.26-17.51-3.88-8.34-18.54-16-37.21-22.79-56.37-.4,17.24,.2,34.1,1.82,51.27-5.37-1.37-8.06-2.07-13.44-3.51-2.87-31.32-1.65-61.12,3.64-92.12Z"/><path class="cls-7" d="M126.65,175.66c12.31-.47,24.63-.91,36.94-1.3-.78,8.77-1.11,13.15-1.63,21.92-8.08-.02-12.11-.03-20.18-.05-.73,9.79-.99,14.68-1.31,24.47,7.16,.33,10.74,.48,17.91,.76-.24,9.6-.28,14.4-.2,24-7.2-.52-10.79-.81-17.99-1.43,.29,15.22,1.03,30.34,2.23,45.51-6.99-1.18-10.5-1.82-17.53-3.18-3.21-37.1-2.6-73.72,1.74-110.69Z"/><path class="cls-7" d="M172.39,174.13c6.83-.17,10.24-.25,17.06-.38-1.75,32.37-2.26,64.68-1.51,97.09,7.53,.52,11.29,.74,18.82,1.07,.19,10.07,.32,15.11,.66,25.18-11.96-.93-23.86-2.03-35.79-3.29-2.36-39.97-2.08-79.74,.76-119.67Z"/><path class="cls-7" d="M262.56,297.6c-8.2,.34-12.29,.44-20.49,.47-.99-10.62-1.5-15.94-2.54-26.56-5.5,0-8.25-.03-13.75-.13-.9,10.59-1.33,15.88-2.12,26.45-5.54-.17-8.31-.29-13.86-.6,3.53-41.43,8.64-82.67,13.96-123.91,9.52-.06,14.28-.07,23.8-.04,5.32,41.41,10.81,82.78,14.99,124.32Zm-29.65-104.91c-1.89,19.36-3.76,38.72-5.54,58.09,4.52,.05,6.77,.07,11.29,.08-1.55-19.39-3.09-38.77-4.55-58.16-.48,0-.72,0-1.2,0Z"/><path class="cls-7" d="M269.47,297.27c.86-31.77,1.02-63.51,.51-95.29-5,.02-7.49,.03-12.49,.04-.11-9.57-.26-19.13-.46-28.7,13.89,.09,27.78,.28,41.66,.59,.66,9.28,1.16,18.59,1.52,27.88-5.1,.04-7.65,.06-12.75,.09,.81,31.43,.56,62.75-.76,94.17-6.91,.59-10.35,.83-17.24,1.21Z"/><path class="cls-7" d="M305.63,174.08c6.83,.17,10.24,.26,17.07,.47,3.4,39.12,3.76,78,1.04,117.17-6.97,1.03-10.44,1.49-17.38,2.32,2.3-40.06,2.04-79.93-.73-119.96Z"/><path class="cls-7" d="M361.26,287.32c-3.43,.71-6.41,.59-8.95-.4-2.55-.98-4.72-2.65-6.55-4.99-1.83-2.34-3.33-5.29-4.53-8.82-1.2-3.53-2.15-7.46-2.89-11.76-.73-4.3-1.26-8.89-1.6-13.73-.34-4.85-.53-9.81-.58-14.86-.05-5,.08-9.97,.4-14.9,.32-4.93,.83-9.63,1.55-14.08,.72-4.45,1.65-8.56,2.83-12.31,1.17-3.75,2.6-6.96,4.3-9.62s3.7-4.7,6.01-6.12c2.31-1.42,4.99-2.04,8.04-1.89,3.05,.15,5.94,1.04,8.67,2.62,2.73,1.58,5.28,3.68,7.64,6.28,2.36,2.6,4.51,5.62,6.41,9.05,1.9,3.44,3.55,7.13,4.92,11.07,1.37,3.95,2.44,8.07,3.2,12.4,.76,4.32,1.2,8.68,1.32,13.09,.12,4.46-.06,8.87-.52,13.25-.46,4.38-1.24,8.6-2.32,12.69-1.08,4.09-2.47,7.95-4.17,11.62-1.69,3.67-3.7,6.96-5.98,9.88-2.29,2.92-4.88,5.41-7.75,7.42-2.87,2.02-6.03,3.41-9.45,4.12Zm-7.47-55.79c.09,6.31,.28,11.68,.66,16.09,.38,4.41,.91,7.98,1.65,10.69,.74,2.71,1.68,4.62,2.86,5.73,1.18,1.11,2.55,1.54,4.13,1.29,1.58-.25,3.03-1.12,4.35-2.59,1.32-1.47,2.49-3.64,3.48-6.5,.99-2.86,1.79-6.45,2.32-10.79,.53-4.33,.78-9.51,.66-15.54-.12-6.03-.58-11.18-1.28-15.46-.7-4.28-1.62-7.79-2.71-10.53-1.09-2.74-2.32-4.77-3.67-6.09-1.35-1.32-2.8-1.98-4.35-1.98-1.55,0-2.87,.68-3.99,2.03-1.11,1.36-1.97,3.47-2.62,6.34-.64,2.87-1.06,6.56-1.3,11.07-.24,4.51-.28,9.93-.19,16.24Z"/><path class="cls-7" d="M396.67,177.8c6.65,.38,9.98,.58,16.64,.99,9.02,14.72,17.77,29.55,26.2,44.61-.69-14.53-2.54-29-5.48-43.24,5.28,.37,7.92,.55,13.2,.94,5.16,27.32,6.65,53.59,4.45,81.28-7.02,2.05-10.53,3.05-17.57,5.02-5.94-15.1-12.39-29.88-19.3-44.57,.44,16.89-.13,33.42-1.71,50.24-5.37,1.4-8.06,2.08-13.43,3.41,3.18-33.28,2.14-65.64-3.02-98.67Z"/></g><g><path class="cls-1" d="M46.54,268.18c-7.29-2-10.94-3.03-18.21-5.11-2.25-27.98-.72-54.53,4.58-82.14,7.11-.51,10.65-.76,17.74-1.23-5.46,29.76-6.84,58.35-4.11,88.48Z"/><path class="cls-1" d="M72.33,223.65c-.42,17.42,.2,34.45,1.86,51.8-5.51-1.39-8.27-2.1-13.8-3.55-2.94-31.64-1.69-61.76,3.74-93.09,6.84-.42,10.26-.63,17.08-1.02,.09,.35,.19,.71,.29,1.05-3.58,18.06-5.28,36.55-5.32,55.23-1.31-3.46-2.6-6.94-3.86-10.43Z"/></g></g><path class="cls-5" d="M432.63,320.05c-3.32,1.87-7.4-.63-7.26-4.44,2.47-67.27-3.44-107.92-11.09-131.18-20.1-61.15-81.88-130.78-158.78-160.03-1.76-.67-1.62-3.2,.19-3.67,19.96-5.21,19.72-1.87,27.84-1.77,.24,0,.46,.11,.7,.13,57.87,4.73,188.41,82.64,166.56,285.72-.36,3.36-2.31,6.35-5.26,8.01l-12.9,7.24Z"/></g></g></svg>